<mxfile host="app.diagrams.net" agent="Mozilla/5.0 (X11; Linux x86_64; rv:133.0) Gecko/20100101 Firefox/133.0" version="24.9.3">
  <diagram name="Page-1" id="KvShtvXIFlJ61fkcXhO5">
    <mxGraphModel dx="794" dy="790" grid="1" gridSize="10" guides="1" tooltips="1" connect="1" arrows="1" fold="1" page="1" pageScale="1" pageWidth="850" pageHeight="1100" math="0" shadow="0">
      <root>
        <mxCell id="0" />
        <mxCell id="1" parent="0" />
        <mxCell id="WeaUKygNGZikJvxpgtUu-9" style="edgeStyle=orthogonalEdgeStyle;rounded=0;orthogonalLoop=1;jettySize=auto;html=1;" edge="1" parent="1" source="WeaUKygNGZikJvxpgtUu-1" target="WeaUKygNGZikJvxpgtUu-8">
          <mxGeometry relative="1" as="geometry" />
        </mxCell>
        <mxCell id="WeaUKygNGZikJvxpgtUu-11" style="edgeStyle=orthogonalEdgeStyle;rounded=0;orthogonalLoop=1;jettySize=auto;html=1;entryX=0;entryY=0.5;entryDx=0;entryDy=0;" edge="1" parent="1" source="WeaUKygNGZikJvxpgtUu-1" target="WeaUKygNGZikJvxpgtUu-10">
          <mxGeometry relative="1" as="geometry" />
        </mxCell>
        <mxCell id="WeaUKygNGZikJvxpgtUu-14" style="edgeStyle=orthogonalEdgeStyle;rounded=0;orthogonalLoop=1;jettySize=auto;html=1;entryX=0;entryY=0.5;entryDx=0;entryDy=0;" edge="1" parent="1" source="WeaUKygNGZikJvxpgtUu-1" target="WeaUKygNGZikJvxpgtUu-12">
          <mxGeometry relative="1" as="geometry" />
        </mxCell>
        <mxCell id="WeaUKygNGZikJvxpgtUu-16" style="edgeStyle=orthogonalEdgeStyle;rounded=0;orthogonalLoop=1;jettySize=auto;html=1;entryX=0;entryY=0.5;entryDx=0;entryDy=0;" edge="1" parent="1" source="WeaUKygNGZikJvxpgtUu-1" target="WeaUKygNGZikJvxpgtUu-5">
          <mxGeometry relative="1" as="geometry" />
        </mxCell>
        <mxCell id="WeaUKygNGZikJvxpgtUu-17" style="edgeStyle=orthogonalEdgeStyle;rounded=0;orthogonalLoop=1;jettySize=auto;html=1;entryX=0;entryY=0.5;entryDx=0;entryDy=0;" edge="1" parent="1" source="WeaUKygNGZikJvxpgtUu-1" target="WeaUKygNGZikJvxpgtUu-13">
          <mxGeometry relative="1" as="geometry" />
        </mxCell>
        <mxCell id="WeaUKygNGZikJvxpgtUu-19" style="edgeStyle=orthogonalEdgeStyle;rounded=0;orthogonalLoop=1;jettySize=auto;html=1;entryX=0;entryY=0.5;entryDx=0;entryDy=0;" edge="1" parent="1" source="WeaUKygNGZikJvxpgtUu-1" target="WeaUKygNGZikJvxpgtUu-18">
          <mxGeometry relative="1" as="geometry" />
        </mxCell>
        <mxCell id="WeaUKygNGZikJvxpgtUu-1" value="&lt;div&gt;User&lt;/div&gt;" style="shape=umlActor;verticalLabelPosition=bottom;verticalAlign=top;html=1;outlineConnect=0;" vertex="1" parent="1">
          <mxGeometry x="40" y="180" width="30" height="60" as="geometry" />
        </mxCell>
        <mxCell id="WeaUKygNGZikJvxpgtUu-3" value="&lt;div&gt;Web App&lt;/div&gt;" style="swimlane;whiteSpace=wrap;html=1;" vertex="1" parent="1">
          <mxGeometry x="160" y="120" width="200" height="640" as="geometry" />
        </mxCell>
        <mxCell id="WeaUKygNGZikJvxpgtUu-5" value="&lt;div&gt;List Tools&lt;/div&gt;" style="ellipse;whiteSpace=wrap;html=1;" vertex="1" parent="WeaUKygNGZikJvxpgtUu-3">
          <mxGeometry x="40" y="400" width="140" height="70" as="geometry" />
        </mxCell>
        <mxCell id="WeaUKygNGZikJvxpgtUu-8" value="&lt;div&gt;Add Tool&lt;/div&gt;" style="ellipse;whiteSpace=wrap;html=1;" vertex="1" parent="WeaUKygNGZikJvxpgtUu-3">
          <mxGeometry x="40" y="40" width="140" height="70" as="geometry" />
        </mxCell>
        <mxCell id="WeaUKygNGZikJvxpgtUu-10" value="&lt;div&gt;Delete Tool&lt;/div&gt;" style="ellipse;whiteSpace=wrap;html=1;" vertex="1" parent="WeaUKygNGZikJvxpgtUu-3">
          <mxGeometry x="40" y="320" width="140" height="70" as="geometry" />
        </mxCell>
        <mxCell id="WeaUKygNGZikJvxpgtUu-12" value="&lt;div&gt;Edit Tool&lt;/div&gt;" style="ellipse;whiteSpace=wrap;html=1;" vertex="1" parent="WeaUKygNGZikJvxpgtUu-3">
          <mxGeometry x="40" y="120" width="140" height="70" as="geometry" />
        </mxCell>
        <mxCell id="WeaUKygNGZikJvxpgtUu-13" value="&lt;div&gt;Adjust Tool Quantity&lt;/div&gt;" style="ellipse;whiteSpace=wrap;html=1;" vertex="1" parent="WeaUKygNGZikJvxpgtUu-3">
          <mxGeometry x="40" y="240" width="140" height="70" as="geometry" />
        </mxCell>
        <mxCell id="WeaUKygNGZikJvxpgtUu-18" value="&lt;div&gt;Search Tools&lt;/div&gt;" style="ellipse;whiteSpace=wrap;html=1;" vertex="1" parent="WeaUKygNGZikJvxpgtUu-3">
          <mxGeometry x="40" y="520" width="140" height="70" as="geometry" />
        </mxCell>
        <mxCell id="WeaUKygNGZikJvxpgtUu-20" value="Extends" style="endArrow=block;endSize=16;endFill=0;html=1;rounded=0;exitX=0.5;exitY=0;exitDx=0;exitDy=0;entryX=0.5;entryY=1;entryDx=0;entryDy=0;dashed=1;" edge="1" parent="WeaUKygNGZikJvxpgtUu-3" source="WeaUKygNGZikJvxpgtUu-18" target="WeaUKygNGZikJvxpgtUu-5">
          <mxGeometry width="160" relative="1" as="geometry">
            <mxPoint x="150" y="510" as="sourcePoint" />
            <mxPoint x="310" y="510" as="targetPoint" />
          </mxGeometry>
        </mxCell>
        <mxCell id="WeaUKygNGZikJvxpgtUu-21" value="Extends" style="endArrow=block;endSize=16;endFill=0;html=1;rounded=0;exitX=0.5;exitY=0;exitDx=0;exitDy=0;entryX=0.5;entryY=1;entryDx=0;entryDy=0;dashed=1;" edge="1" parent="WeaUKygNGZikJvxpgtUu-3" source="WeaUKygNGZikJvxpgtUu-13" target="WeaUKygNGZikJvxpgtUu-12">
          <mxGeometry width="160" relative="1" as="geometry">
            <mxPoint x="150" y="220" as="sourcePoint" />
            <mxPoint x="310" y="220" as="targetPoint" />
          </mxGeometry>
        </mxCell>
      </root>
    </mxGraphModel>
  </diagram>
</mxfile>
